# xmcd CD database file
#
# Track frame offsets:
#	150
#	21780
#	39912
#	58442
#	76742
#	96612
#	111705
#	134267
#	152247
#	171047
#
# Disc length: 2562 seconds
#
# Revision: 0
# Processed by: cddbd v1.5.1PL0 Copyright (c) Steve Scherf et al.
# Submitted via: CDex 1.51
#
DISCID=870a000a
DTITLE=麻倉未稀 - Love Again
DYEAR=1985
DGENRE=JPop
TTITLE0=ヒーロー
TTITLE1=ハートブレイカー泣かないで
TTITLE2=あの胸にもう一度
TTITLE3=Last Songララバイ
TTITLE4=モーニング・ミスティ
TTITLE5=Girls Get Lonely Too
TTITLE6=ワンダフル・ワールド
TTITLE7=One Shot
TTITLE8=海辺からの手紙
TTITLE9=Love Again
EXTD=YEAR: 1985
EXTT0=
EXTT1=
EXTT2=
EXTT3=
EXTT4=
EXTT5=
EXTT6=
EXTT7=
EXTT8=
EXTT9=
PLAYORDER=
